<svg width="500" height="263" fill="none" xmlns="http://www.w3.org/2000/svg"><g clip-path="url(#a)"><path fill="url(#b)" d="M0 0h500v263H0z"/><path d="M65.934 55.33c71.34-7.19 136.217-9.291 192.933-6.22 70.775 3.877 128.784 15.834 172.654 35.628 87.418 39.427 161.505 60.756 213.293 72.147v-5.817c-84.347-18.663-160.454-48.717-211.03-71.581C389.348 59.45 330.611 47.25 259.109 43.373c-57.039-3.151-122.239-1.05-193.821 6.22-67.624 7.03-128.461 17.21-169.262 25.046 0 1.859 0 3.797.081 5.737C-63.254 72.618-2.175 62.278 65.934 55.33Z" fill="#4B2A5B"/><path d="M65.853 38.364c71.34-7.19 136.297-9.291 193.095-6.221 70.855 3.878 129.026 15.916 172.896 35.71 87.257 39.426 161.263 60.674 213.051 72.066v-4.12C560.386 117.136 484.117 87 433.46 64.136c-44.274-19.955-102.93-32.074-174.27-35.952-56.959-3.15-122.159-1.05-193.741 6.221C-2.417 41.272-63.335 51.533-104.135 59.37v4.12c40.8-7.837 101.88-18.178 169.988-25.126Z" fill="#401B56"/><path d="M-5.002 106.148c8.645-.161 14.866-.242 16.805-.242 21.571-.081 46.698-.243 71.42-.404h8.807c20.683.081 42.012.081 60.514-10.018 6.382-3.474 12.199-7.756 17.936-11.958 6.221-4.524 12.603-9.29 19.471-12.684 19.148-9.614 40.639-9.049 61.402-8.483 5.817.161 11.877.323 17.694.242 11.23-.161 22.622-.08 33.691-.08 5.655 0 11.23.08 16.885.08h325.999c0-1.939.081-3.797.081-5.655H319.542c-5.655 0-11.23 0-16.885-.08-11.069-.082-22.541-.082-33.772.08-5.817.08-11.715-.08-17.532-.242-21.491-.566-43.709-1.132-64.068 9.129-7.272 3.636-13.897 8.483-20.279 13.17-5.494 4.039-11.231 8.24-17.29 11.552-17.209 9.291-37.811 9.291-57.767 9.21h-8.806c-24.723.243-49.769.324-71.421.405-1.94 0-7.918.08-16.886.242-20.037.404-64.069 1.212-98.648 1.293v5.655c2.909 0 5.979 0 9.13-.081 31.59-.161 67.946-.727 89.68-1.131Z" fill="#C63E3A"/><path d="M-94.682 90.394c31.59-.162 67.946-.808 89.68-1.212 8.645-.162 14.866-.243 16.805-.243 21.571-.08 46.698-.242 71.42-.403h9.292c20.279.08 41.204.161 59.382-9.776 6.302-3.474 12.2-7.756 17.936-11.958 6.302-4.605 12.766-9.371 19.714-12.845 19.309-9.695 40.881-9.13 61.806-8.564 5.817.161 11.796.323 17.694.242 11.23-.161 22.622-.08 33.691-.08 5.655 0 11.23.08 16.885.08h326.161c0-1.373 0-2.747.081-4.04H319.543c-5.656 0-11.231 0-16.886-.08-11.069-.081-22.541-.081-33.772.08-5.817.081-11.795-.08-17.532-.242-21.41-.565-43.466-1.131-63.664 9.049-7.191 3.635-13.897 8.483-20.279 13.25-5.575 4.12-11.392 8.402-17.452 11.714-17.289 9.21-37.73 9.13-57.443 9.05h-9.372c-24.723.242-49.769.322-71.421.403-1.94 0-7.918.08-16.886.242-20.117.324-64.23 1.131-98.81 1.212v4.04c3.071.08 6.14.08 9.292.08Z" fill="#8C1E35"/><path fill-rule="evenodd" clip-rule="evenodd" d="M20.043 131.032c-18.34.242-37.326.404-55.989.404v.081h-67.704v-4.04h67.542c14.233 0 28.653-.141 42.831-.279 4.414-.044 8.805-.086 13.159-.125l4.85-.043c35.325-.312 71.68-.634 107.371.447 13.735.404 27.066 2.828 39.993 5.252 12.442 2.343 25.288 4.686 38.215 5.17.681.027 1.376.048 2.084.063a15.408 15.408 0 0 0 1.954 2.098c.74.664 1.558 1.286 2.441 1.869-2.294.037-4.49.006-6.56-.071-13.25-.565-26.258-2.908-38.781-5.251-12.765-2.343-26.015-4.767-39.346-5.171-37.245-1.131-75.299-.808-112.06-.404Zm257.882-12.844c1.049-.951 2.084-1.904 3.111-2.849l.857-.789c8.079-7.513 15.755-14.623 26.5-18.582 17.855-6.625 37.73-6.463 55.262-6.301 89.923.808 182.35 1.212 281.644 1.292v-4.04c-99.294-.08-191.721-.484-281.644-1.292-16.966-.162-38.134-.323-56.716 6.544-11.533 4.275-19.766 11.931-27.832 19.432l-.042.039a398.132 398.132 0 0 1-3.657 3.381l-.049.309a46.635 46.635 0 0 1-.322 1.779 48.92 48.92 0 0 1 2.888 1.077Zm-29.707 14.291c1.301-.481 2.599-1 3.889-1.56.048.175.074.359.074.547 0 1.123-.923 2.078-2.116 2.078a2.114 2.114 0 0 1-1.847-1.065Z" fill="#E84D34"/><path fill-rule="evenodd" clip-rule="evenodd" d="M233.286 152.895a99.326 99.326 0 0 0 8.809-1.189 76.02 76.02 0 0 0 1.658 2.002c-.257.22-.513.432-.767.637-2.418 1.954-4.493 3.113-6.085 3.625a7.113 7.113 0 0 1-.938.239l-.589.064c-.498.015-.738-.096-.818-.143-.134-.076-.669-.455-1.016-2.068-.183-.852-.278-1.909-.254-3.167Zm-9.003.442c-1.998.018-3.915-.016-5.732-.087-12.926-.485-25.692-2.828-38.053-5.171-12.927-2.424-26.339-4.847-40.073-5.251-35.723-1.083-72.185-.759-107.475-.446l-4.747.042c-4.353.038-8.743.081-13.157.124-14.178.139-28.6.28-42.832.28h-75.864v5.655h75.783v-.081c18.663 0 37.65-.161 56.07-.404 36.761-.404 74.815-.727 112.06.404 13.288.403 26.415 2.812 39.142 5.148l.123.023c12.604 2.343 25.612 4.686 38.862 5.251 2.076.077 4.279.108 6.583.072a15.92 15.92 0 0 1-.231-.941c-.312-1.447-.455-2.998-.459-4.618Zm65.777-21.54.559-.523.204-.19c7.924-7.363 15.479-14.385 26.053-18.23 17.775-6.544 37.569-6.383 55.02-6.221 87.418.727 177.26 1.131 273.403 1.293v-5.656c-96.143-.081-185.985-.485-273.403-1.293-17.047-.161-38.296-.323-57.04 6.625-10.959 4.082-18.948 11.133-26.548 18.177 1.063 1.633 1.757 3.536 1.757 5.687 0 .111-.002.221-.005.331Zm-23.519 17.665c-.021-.142-.044-.286-.067-.431-.053-.327-.111-.66-.175-.997-1.964.36-4.012.655-6.125.881a81.919 81.919 0 0 1-3.796 4.793l.025.022a78.832 78.832 0 0 0 10.138-4.268Z" fill="#FB7552"/><path d="M-71.98 161.167c7.353-2.585 14.786-5.332 21.976-7.998 25.773-9.534 52.435-19.471 80.47-21.329 41.123-2.666 79.823 12.199 115.453 28.681l11.634 5.332c14.219 6.544 29.005 13.25 43.224 20.844 18.017 9.615 37.407 18.987 58.494 18.987h1.616c20.602-.485 40.477-8.322 59.706-15.997 9.776-3.878 19.875-7.837 29.651-10.746 70.774-20.521 147.447-26.095 213.212-28.761 6.868-.243 13.735-.647 20.926-1.051 20.036-1.05 40.558-2.1 60.513-1.373v-4.04c-20.036-.727-40.638.323-60.756 1.455-7.271.403-14.058.727-20.925 1.05-66.008 2.666-143.004 8.241-214.182 28.923-10.018 2.909-20.198 6.948-30.055 10.826-18.905 7.514-38.457 15.189-58.332 15.674-20.764.485-40.074-8.887-58.09-18.501-14.382-7.676-29.167-14.462-43.467-21.006-3.878-1.778-7.756-3.555-11.553-5.332-36.115-16.724-75.3-31.832-117.392-29.085-28.601 1.858-55.505 11.876-81.601 21.571-7.19 2.666-14.624 5.413-21.895 7.917-9.938 3.475-20.037 7.029-30.217 10.827v4.282c10.665-3.798 21.249-7.595 31.59-11.15Z" fill="#F4A519"/><path d="M-71.737 178.053c7.352-2.586 14.785-5.333 21.975-7.999 25.693-9.533 52.354-19.39 80.228-21.248 40.962-2.666 79.5 12.2 115.049 28.6l11.634 5.333c14.219 6.544 28.924 13.25 43.224 20.844 18.582 9.937 38.619 19.552 60.514 19.067 20.764-.485 40.719-8.403 60.029-15.997 9.695-3.878 19.794-7.837 29.57-10.664 70.694-20.522 147.366-26.015 213.051-28.682 6.867-.242 14.058-.646 20.925-1.05 20.037-1.05 40.477-2.1 60.433-1.454v-5.656c-20.036-.727-40.558.404-60.756 1.455-7.191.404-14.058.727-20.925 1.05-66.008 2.666-143.084 8.241-214.344 28.923-10.099 2.909-20.279 6.949-30.135 10.827-18.825 7.432-38.377 15.188-58.091 15.592-20.602.485-39.75-8.806-57.686-18.339-14.381-7.676-29.166-14.462-43.466-21.006-3.878-1.778-7.756-3.555-11.554-5.332-22.621-10.503-40.154-17.209-56.958-21.976-21.734-6.059-41.69-8.483-60.757-7.19-28.762 1.858-55.747 11.876-81.843 21.571-7.19 2.666-14.542 5.413-21.895 7.918a1343.332 1343.332 0 0 0-29.893 10.664v6.06a2160.498 2160.498 0 0 1 31.67-11.311Z" fill="#FDC755"/><path d="M250.065 138.044c3.654 0 6.616-2.946 6.616-6.578 0-3.633-2.962-6.578-6.616-6.578-3.654 0-6.616 2.945-6.616 6.578 0 3.632 2.962 6.578 6.616 6.578Z" fill="#fff"/><path d="M250.065 144.942c19.606 0 35.5-6.033 35.5-13.476 0-7.443-15.894-13.477-35.5-13.477s-35.5 6.034-35.5 13.477c0 7.443 15.894 13.476 35.5 13.476Z" stroke="#fff" stroke-width="3"/><path d="M238.327 138.204c9.803 16.882 23.005 27.551 29.488 23.829 6.483-3.721 3.792-20.424-6.011-37.306-9.803-16.882-23.006-27.55-29.489-23.829-6.483 3.721-3.791 20.424 6.012 37.306Z" stroke="#fff" stroke-width="3"/><path d="M238.327 124.727c-9.803 16.882-12.495 33.585-6.012 37.306 6.483 3.722 19.686-6.947 29.489-23.829s12.494-33.585 6.011-37.306c-6.483-3.722-19.685 6.947-29.488 23.829Z" stroke="#fff" stroke-width="3"/></g><defs><linearGradient id="b" x1="250" y1="0" x2="250" y2="263" gradientUnits="userSpaceOnUse"><stop stop-color="#261033"/><stop offset="1" stop-color="#35164A"/></linearGradient><clipPath id="a"><path fill="#fff" d="M0 0h500v263H0z"/></clipPath></defs></svg>